<?xml version="1.0" encoding="utf-8"?>
<!-- Generator: Adobe Illustrator 27.0.0, SVG Export Plug-In . SVG Version: 6.00 Build 0)  -->
<svg version="1.1" id="Layer_1" xmlns="http://www.w3.org/2000/svg" xmlns:xlink="http://www.w3.org/1999/xlink" x="0px" y="0px"
	 viewBox="0 0 230.51 230.51" style="enable-background:new 0 0 230.51 230.51;" xml:space="preserve">
<style type="text/css">
	.st0{fill:#537FE7;}
	.st1{fill:#FFFFFF;}
</style>
<path class="st0" d="M214.07,3.99h-195c-6.6,0-12,5.4-12,12v195c0,6.6,5.4,12,12,12h195c6.6,0,12-5.4,12-12v-195
	C226.07,9.39,220.67,3.99,214.07,3.99z"/>
<g>
	<path class="st1" d="M191.31,126.7v19.05c0,0.79-0.49,1.55-1.47,2.11l-69.62,40.2c-2.17,1.25-5.98,1.1-8.49-0.35l-67.85-39.17
		c-1.37-0.79-2.07-1.8-2.07-2.77v-19.05c0,0.96,0.7,1.98,2.07,2.77l11.95,6.9l55.89,32.27c2.5,1.45,6.32,1.6,8.49,0.35l57.06-32.94
		l12.56-7.26C190.82,128.24,191.3,127.49,191.31,126.7z"/>
	<path class="st1" d="M191.31,97.61v19.05c0,0.79-0.49,1.55-1.47,2.11l-69.62,40.2c-2.17,1.25-5.98,1.1-8.49-0.35l-67.85-39.17
		c-1.37-0.79-2.07-1.8-2.07-2.77V97.62c0,0.96,0.7,1.98,2.07,2.77l11.95,6.9l55.89,32.27c2.5,1.45,6.32,1.6,8.49,0.35l57.06-32.94
		l12.56-7.26C190.82,99.15,191.3,98.4,191.31,97.61z"/>
	<path class="st1" d="M191.31,68.51v19.05c0,0.79-0.49,1.55-1.47,2.11l-69.62,40.2c-2.17,1.25-5.98,1.1-8.49-0.35L43.89,90.35
		c-1.37-0.79-2.07-1.8-2.07-2.77V68.53c0,0.96,0.7,1.98,2.07,2.77l11.95,6.9l55.89,32.27c2.5,1.45,6.32,1.6,8.49,0.35l57.06-32.94
		l12.56-7.26C190.82,70.06,191.3,69.31,191.31,68.51z"/>
	<polygon class="st1" points="103.38,38.07 114.77,43.44 127.22,38.81 121.82,46.76 133.21,52.13 118.48,51.68 113.08,59.63 
		109.37,51.4 94.63,50.95 107.08,46.31 	"/>
	<polygon class="st1" points="124.51,69.83 150.33,54.92 175.97,69.72 150.15,84.63 	"/>
	
		<ellipse transform="matrix(1 -6.291624e-03 6.291624e-03 1 -0.4295 0.5063)" class="st1" cx="80.25" cy="68.51" rx="19.21" ry="11.09"/>
	<polygon class="st1" points="127.26,82.03 89.82,87.7 117.45,103.65 	"/>
</g>
<polygon class="st0" points="138.03,77.63 150.24,69.77 162.93,77.25 150.15,84.63 "/>
</svg>
