<?xml version="1.0" encoding="UTF-8"?>
<svg id="Layer_1" data-name="Layer 1" xmlns="http://www.w3.org/2000/svg" viewBox="0 0 431.13 567.42">
  <defs>
    <style>
      .cls-1 {
        stroke-width: .19px;
      }

      .cls-1, .cls-2, .cls-3, .cls-4, .cls-5, .cls-6, .cls-7, .cls-8, .cls-9, .cls-10, .cls-11, .cls-12, .cls-13, .cls-14, .cls-15, .cls-16, .cls-17, .cls-18, .cls-19, .cls-20, .cls-21, .cls-22, .cls-23, .cls-24, .cls-25, .cls-26 {
        stroke: #000;
      }

      .cls-1, .cls-3, .cls-4, .cls-5, .cls-6, .cls-7, .cls-8, .cls-9, .cls-10, .cls-11, .cls-12, .cls-14, .cls-27, .cls-15, .cls-28, .cls-16, .cls-17, .cls-18, .cls-20, .cls-23, .cls-24, .cls-25, .cls-26 {
        fill: none;
      }

      .cls-1, .cls-3, .cls-7, .cls-10, .cls-11, .cls-27, .cls-28, .cls-24 {
        stroke-linecap: round;
        stroke-linejoin: round;
      }

      .cls-2, .cls-4, .cls-5, .cls-6, .cls-8, .cls-9, .cls-12, .cls-13, .cls-14, .cls-15, .cls-16, .cls-17, .cls-18, .cls-19, .cls-20, .cls-21, .cls-22, .cls-23, .cls-25, .cls-26 {
        stroke-miterlimit: 10;
      }

      .cls-2, .cls-21 {
        stroke-width: .35px;
      }

      .cls-3 {
        stroke-width: 1.46px;
      }

      .cls-4, .cls-19 {
        stroke-width: .84px;
      }

      .cls-29 {
        opacity: .07;
      }

      .cls-5 {
        stroke-dasharray: 0 0 .69 1.38;
      }

      .cls-5, .cls-13, .cls-14, .cls-16, .cls-18, .cls-22 {
        stroke-width: .35px;
      }

      .cls-30 {
        fill: #fffffd;
      }

      .cls-31 {
        fill: #e4f8f8;
      }

      .cls-32 {
        fill: #b2eff2;
      }

      .cls-33, .cls-13, .cls-21 {
        fill: #4480ee;
      }

      .cls-34 {
        fill: #181824;
      }

      .cls-6 {
        stroke-width: .65px;
      }

      .cls-7 {
        stroke-width: .53px;
      }

      .cls-8, .cls-9, .cls-15, .cls-20 {
        stroke-width: .69px;
      }

      .cls-9 {
        stroke-dasharray: 0 0 .69 1.38;
      }

      .cls-10, .cls-12 {
        stroke-width: .53px;
      }

      .cls-11 {
        stroke-width: .19px;
      }

      .cls-14 {
        stroke-dasharray: 0 0 .69 1.38;
      }

      .cls-27 {
        stroke: #4480ee;
        stroke-width: 2.19px;
      }

      .cls-15 {
        stroke-dasharray: 0 0 .68 1.35;
      }

      .cls-28 {
        stroke: #fffffd;
        stroke-width: .65px;
      }

      .cls-16 {
        stroke-dasharray: 0 0 .69 1.38;
      }

      .cls-17 {
        stroke-width: .69px;
      }

      .cls-20 {
        stroke-dasharray: 0 0 .69 1.39;
      }

      .cls-23 {
        stroke-width: 1px;
      }

      .cls-24 {
        stroke-width: 1.1px;
      }

      .cls-25 {
        stroke-width: 1.04px;
      }

      .cls-26 {
        stroke-width: 1px;
      }
    </style>
  </defs>
  <g>
    <line class="cls-18" x1="94.29" y1="376.9" x2="94" y2="376.71"/>
    <line class="cls-14" x1="92.84" y1="375.96" x2="1.04" y2="316.59"/>
    <polyline class="cls-18" points=".46 316.22 .17 316.03 .17 315.69"/>
    <line class="cls-16" x1=".17" y1="314.31" x2=".17" y2="174.6"/>
    <polyline class="cls-18" points=".17 173.91 .17 173.56 .47 173.74"/>
    <line class="cls-5" x1="1.65" y1="174.46" x2="33.01" y2="193.4"/>
    <line class="cls-18" x1="33.6" y1="193.76" x2="33.89" y2="193.94"/>
  </g>
  <path class="cls-13" d="M55.6,199.14l-17.01-9.96h0c-.77-.49-1.86-.44-3.07,.25-2.33,1.35-4.22,4.6-4.22,7.27,0,1.41,.52,2.37,1.36,2.77h0s17.31,10.12,17.31,10.12"/>
  <ellipse class="cls-22" cx="52.69" cy="204.32" rx="5.95" ry="3.43" transform="translate(-150.24 146.51) rotate(-59.64)"/>
  <path class="cls-32" d="M275.87,437.73l-101.59-58.65c-5.17-2.98-12.99-3.31-17.47-.72l-104.97,60.61c-2.11,1.21-3.1,2.86-3.02,4.57,.09,1.92,1.53,3.94,4.27,5.51l5.32,3.07,12.15,7.02,27.14,15.67,56.98,32.9c5.17,2.98,12.99,3.31,17.47,.72l59.11-34.13,27.13-15.67,12.15-7.02,6.58-3.8c2.03-1.17,3.02-2.74,3.02-4.38v-.05c-.02-1.97-1.47-4.04-4.28-5.66Z"/>
  <line class="cls-12" x1="280.14" y1="460.34" x2="280.14" y2="460.2"/>
  <path class="cls-12" d="M280.14,460.2c.08,1.71-.91,3.35-3.02,4.56l-4.04,2.34-27.14,15.66-73.79,42.61c-4.48,2.58-12.3,2.26-17.47-.73l-71.66-41.37-27.14-15.66-2.79-1.61c-2.77-1.6-4.22-3.64-4.27-5.59v-16.87c.09,1.92,1.53,3.94,4.27,5.51l5.32,3.07,12.15,7.02,27.14,15.67,56.98,32.9c5.17,2.98,12.99,3.31,17.47,.72l59.11-34.13,27.13-15.67,12.15-7.02,6.58-3.8c2.03-1.17,3.02-2.74,3.02-4.38v16.77Z"/>
  <line class="cls-12" x1="48.82" y1="443.53" x2="48.82" y2="443.38"/>
  <line class="cls-12" x1="280.14" y1="522.65" x2="280.14" y2="522.51"/>
  <path class="cls-12" d="M275.87,437.73l-101.59-58.65c-5.17-2.98-12.99-3.31-17.47-.72l-104.97,60.61c-2.11,1.21-3.1,2.86-3.02,4.57,.09,1.92,1.53,3.94,4.27,5.51l5.32,3.07,12.15,7.02,27.14,15.67,56.98,32.9c5.17,2.98,12.99,3.31,17.47,.72l59.11-34.13,27.13-15.67,12.15-7.02,6.58-3.8c2.03-1.17,3.02-2.74,3.02-4.38v-.05c-.02-1.97-1.47-4.04-4.28-5.66Z"/>
  <path class="cls-33" d="M58.41,452.11l-5.32-3.07c-2.74-1.58-4.19-3.59-4.27-5.51v16.87c.05,1.95,1.5,3.99,4.27,5.59l18.63,10.76v-16.95l-13.31-7.69Z"/>
  <polygon class="cls-30" points="71.72 459.8 71.72 476.75 73.94 478.03 73.94 461.08 71.72 459.8"/>
  <polygon class="cls-33" points="73.94 461.08 73.94 478.03 77.12 479.87 77.12 462.91 73.94 461.08"/>
  <polygon class="cls-33" points="80.29 464.74 80.29 481.7 140.9 516.69 140.9 499.73 80.29 464.74"/>
  <polygon class="cls-30" points="140.9 499.73 140.9 516.69 147.56 520.53 147.56 503.58 140.9 499.73"/>
  <path class="cls-33" d="M172.15,508.42c-4.48,2.58-12.3,2.26-17.47-.72l-7.12-4.11v16.95l7.12,4.11c5.17,2.99,12.99,3.31,17.47,.73l21.11-11.98v-16.95l-21.11,11.98Z"/>
  <polygon class="cls-30" points="77.12 462.91 77.12 479.87 80.29 481.7 80.29 464.74 77.12 462.91"/>
  <path d="M280.14,443.43c0,1.64-.99,3.21-3.02,4.38l-6.58,3.8-77.29,44.63v16.95l83.87-48.42c2.1-1.21,3.1-2.85,3.02-4.56v-16.77Z"/>
  <polygon class="cls-30" points="70.87 433.08 69.03 432.02 69.03 448.97 71.35 450.31 71.35 433.36 70.87 433.08"/>
  <polygon class="cls-30" points="74.14 434.97 74.14 451.93 77.4 453.81 77.4 436.85 74.14 434.97"/>
  <polygon class="cls-33" points="77.4 436.85 77.4 453.81 138.28 488.95 138.28 472 77.4 436.85"/>
  <polygon class="cls-30" points="138.28 472 138.28 488.95 141.6 490.87 141.6 473.92 138.28 472"/>
  <polygon class="cls-33" points="141.6 473.92 141.6 490.87 144.41 492.49 144.41 475.54 141.6 473.92"/>
  <polygon class="cls-30" points="144.41 475.54 144.41 492.49 148.75 495 148.75 478.05 144.41 475.54"/>
  <polygon class="cls-33" points="180.17 477.56 178.64 478.45 178.64 495.4 180.17 494.51 180.17 477.56"/>
  <path class="cls-33" d="M172.15,482.19c-4.48,2.58-12.3,2.26-17.47-.72l-5.93-3.42v16.95l5.93,3.42c5.17,2.99,12.99,3.31,17.47,.73l4.96-2.86v-16.95l-4.96,2.86Z"/>
  <polygon class="cls-30" points="178.64 478.45 177.11 479.33 177.11 496.28 178.64 495.4 178.64 478.45"/>
  <path class="cls-33" d="M184.84,474.86l-3.39,1.96v16.95l3.39-1.96v-16.95Z"/>
  <polygon class="cls-30" points="180.17 477.56 180.17 494.51 181.45 493.78 181.45 476.82 180.17 477.56"/>
  <polygon class="cls-33" points="71.35 433.36 71.35 450.31 74.14 451.93 74.14 434.97 71.35 433.36"/>
  <path class="cls-33" d="M58.41,425.89l-5.32-3.07c-2.74-1.58-4.19-3.59-4.27-5.51v16.87c.05,1.95,1.5,3.99,4.27,5.59l3.09,1.79,12.84,7.41v-16.95l-10.61-6.13Z"/>
  <path d="M280.14,417.21c0,1.64-.99,3.21-3.02,4.38l-6.58,3.8-12.46,7.19-73.24,42.29v16.95l87.93-50.77,4.35-2.51c2.1-1.21,3.1-2.85,3.02-4.56v-16.77Z"/>
  <path class="cls-32" d="M275.87,411.5l-101.59-58.65c-5.17-2.98-12.99-3.31-17.47-.72l-104.97,60.61c-2.11,1.21-3.1,2.86-3.02,4.57,.09,1.92,1.53,3.94,4.27,5.51l5.32,3.07,12.15,7.02,27.14,15.67,56.98,32.9c5.17,2.98,12.99,3.31,17.47,.72l59.11-34.13,27.13-15.67,12.15-7.02,6.58-3.8c2.03-1.17,3.02-2.74,3.02-4.38v-.05c-.02-1.97-1.47-4.04-4.28-5.66Z"/>
  <line class="cls-12" x1="280.14" y1="434.12" x2="280.14" y2="433.98"/>
  <path class="cls-12" d="M280.14,433.98c.08,1.71-.91,3.35-3.02,4.56l-4.04,2.34-27.14,15.66-73.79,42.61c-4.48,2.58-12.3,2.26-17.47-.73l-71.66-41.37-27.14-15.66-2.79-1.61c-2.77-1.6-4.22-3.64-4.27-5.59v-16.87c.09,1.92,1.53,3.94,4.27,5.51l5.32,3.07,12.15,7.02,27.14,15.67,56.98,32.9c5.17,2.98,12.99,3.31,17.47,.72l59.11-34.13,27.13-15.67,12.15-7.02,6.58-3.8c2.03-1.17,3.02-2.74,3.02-4.38v16.77Z"/>
  <line class="cls-12" x1="48.82" y1="417.3" x2="48.82" y2="417.16"/>
  <line class="cls-12" x1="48.82" y1="448.28" x2="48.82" y2="448.14"/>
  <path class="cls-12" d="M275.87,411.5l-101.59-58.65c-5.17-2.98-12.99-3.31-17.47-.72l-104.97,60.61c-2.11,1.21-3.1,2.86-3.02,4.57,.09,1.92,1.53,3.94,4.27,5.51l5.32,3.07,12.15,7.02,27.14,15.67,56.98,32.9c5.17,2.98,12.99,3.31,17.47,.72l59.11-34.13,27.13-15.67,12.15-7.02,6.58-3.8c2.03-1.17,3.02-2.74,3.02-4.38v-.05c-.02-1.97-1.47-4.04-4.28-5.66Z"/>
  <path class="cls-30" d="M167.9,456.78c-.34,.06-.68,.11-1.02,.15v16.95c.35-.04,.69-.09,1.02-.15v-16.95Z"/>
  <path class="cls-33" d="M154.68,454.61l-17.96-10.37v16.95l17.96,10.37c3.48,2.01,8.14,2.8,12.19,2.32v-16.95c-4.05,.48-8.71-.31-12.19-2.32Z"/>
  <path class="cls-33" d="M169.05,456.54c-.37,.09-.76,.17-1.15,.24v16.95c.39-.07,.78-.15,1.15-.24v-16.95Z"/>
  <path class="cls-30" d="M170.07,456.24c-.33,.11-.67,.21-1.02,.3v16.95c.35-.09,.69-.18,1.02-.3v-16.95Z"/>
  <path class="cls-33" d="M172.15,455.33c-.63,.36-1.33,.66-2.08,.91v16.95c.75-.25,1.45-.55,2.08-.91l1.26-.73v-16.95l-1.26,.73Z"/>
  <polygon class="cls-33" points="133.75 442.53 131.23 441.07 131.23 458.02 133.75 459.48 133.75 442.53"/>
  <path class="cls-33" d="M58.41,399.03l-5.32-3.07c-2.74-1.58-4.19-3.59-4.27-5.51v16.87c.05,1.95,1.5,3.99,4.27,5.59l2.79,1.61,8.24,4.75v-16.95l-5.71-3.29Z"/>
  <polygon class="cls-30" points="66.45 403.67 64.12 402.32 64.12 419.28 66.45 420.62 66.45 403.67"/>
  <polygon class="cls-33" points="68.66 404.94 66.45 403.67 66.45 420.62 68.66 421.9 68.66 404.94"/>
  <polygon class="cls-30" points="70.63 406.08 70.56 406.04 68.66 404.94 68.66 421.9 70.63 423.04 70.63 406.08"/>
  <polygon class="cls-33" points="97.7 421.71 70.63 406.08 70.63 423.04 83.02 430.19 129.18 456.83 129.18 439.88 97.7 421.71"/>
  <polygon class="cls-30" points="131.23 441.07 129.18 439.88 129.18 456.83 131.23 458.02 131.23 441.07"/>
  <polygon class="cls-30" points="136.72 444.24 133.75 442.53 133.75 459.48 136.72 461.19 136.72 444.24"/>
  <path d="M277.12,394.73l-6.58,3.8-12.15,7.02-27.13,15.67-57.85,33.4v16.95l72.53-41.88,27.14-15.66,4.04-2.34c.38-.22,.72-.45,1.03-.7v-16.95c-.31,.24-.65,.48-1.03,.7Z"/>
  <path d="M280.14,390.35c0,1.33-.66,2.62-1.99,3.68v16.95c1.4-1.11,2.05-2.47,1.99-3.87v-16.77Z"/>
  <path class="cls-32" d="M275.87,384.64l-101.59-58.65c-5.17-2.98-12.99-3.31-17.47-.72l-104.97,60.61c-2.11,1.21-3.1,2.86-3.02,4.57,.09,1.92,1.53,3.94,4.27,5.51l5.32,3.07,12.15,7.02,27.14,15.67,56.98,32.9c5.17,2.98,12.99,3.31,17.47,.72l59.11-34.13,27.13-15.67,12.15-7.02,6.58-3.8c2.03-1.17,3.02-2.74,3.02-4.38v-.05c-.02-1.97-1.47-4.04-4.28-5.66Zm-54.32,32.69l-47.86-27.63,48.21-27.83,47.86,27.63-48.21,27.83Z"/>
  <polygon class="cls-33" points="222.06 381.98 222.01 362.1 269.41 389.5 252.26 399.4 222.06 381.98"/>
  <polygon points="221.72 381.97 221.72 362.1 174.05 389.6 191.11 399.57 221.72 381.97"/>
  <line class="cls-12" x1="280.14" y1="407.25" x2="280.14" y2="407.12"/>
  <path class="cls-12" d="M280.14,407.12c.08,1.71-.91,3.35-3.02,4.56l-4.04,2.34-27.14,15.66-73.79,42.61c-4.48,2.58-12.3,2.26-17.47-.73l-71.66-41.37-27.14-15.66-2.79-1.61c-2.77-1.6-4.22-3.64-4.27-5.59v-16.87c.09,1.92,1.53,3.94,4.27,5.51l5.32,3.07,12.15,7.02,27.14,15.67,56.98,32.9c5.17,2.98,12.99,3.31,17.47,.72l59.11-34.13,27.13-15.67,12.15-7.02,6.58-3.8c2.03-1.17,3.02-2.74,3.02-4.38v16.77Z"/>
  <line class="cls-12" x1="48.82" y1="390.44" x2="48.82" y2="390.3"/>
  <line class="cls-12" x1="48.82" y1="421.42" x2="48.82" y2="421.28"/>
  <line class="cls-12" x1="48.82" y1="452.76" x2="48.82" y2="452.62"/>
  <path class="cls-12" d="M275.87,384.64l-101.59-58.65c-5.17-2.98-12.99-3.31-17.47-.72l-104.97,60.61c-2.11,1.21-3.1,2.86-3.02,4.57,.09,1.92,1.53,3.94,4.27,5.51l5.32,3.07,12.15,7.02,27.14,15.67,56.98,32.9c5.17,2.98,12.99,3.31,17.47,.72l59.11-34.13,27.13-15.67,12.15-7.02,6.58-3.8c2.03-1.17,3.02-2.74,3.02-4.38v-.05c-.02-1.97-1.47-4.04-4.28-5.66Zm-54.32,32.69l-47.86-27.63,48.21-27.83,47.86,27.63-48.21,27.83Z"/>
  <line class="cls-10" x1="221.89" y1="382.05" x2="221.89" y2="361.87"/>
  <line class="cls-10" x1="221.89" y1="382.05" x2="252.46" y2="399.71"/>
  <line class="cls-10" x1="191.23" y1="399.71" x2="221.89" y2="382.05"/>
  <ellipse class="cls-30" cx="104.54" cy="390.35" rx="33.92" ry="19.58" transform="translate(-2.45 .67) rotate(-.36)"/>
  <polygon class="cls-30" points="184.2 409.95 118.45 420.12 166.58 447.9 184.2 409.95"/>
  <polygon class="cls-30" points="143.42 339.89 163.51 347.46 184.61 338.26 175.93 352.14 196.02 359.71 170.57 360.72 161.89 374.61 154.83 361.35 129.37 362.36 150.47 353.15 143.42 339.89"/>
  <path d="M327.04,172.99v203.74c0,2.46-1.08,4.55-2.71,5.96l13.55-8.54,2.59-1.64h.01c1.49-1.41,2.46-3.41,2.46-5.74V163.04c0-.41-.04-.81-.1-1.21-5.19,3.4-10.42,6.8-15.98,9.58,.11,.52,.18,1.05,.18,1.59Z"/>
  <path class="cls-32" d="M338.99,156.18L71.25,1.59c-2.42-1.39-5.1-1.35-7.31-.32l-1.69,1.06h-.02s-13.85,8.74-13.85,8.74c2.14-.89,4.67-.85,6.97,.47l4.03,2.33L323.08,166.14c1.98,1.14,3.33,3.08,3.78,5.27,5.55-2.77,10.78-6.18,15.98-9.58-.36-2.35-1.76-4.44-3.85-5.64Z"/>
  <path class="cls-30" d="M327.04,172.99v203.74c0,2.46-1.08,4.55-2.71,5.96l-2.08,1.31c-2.17,.94-4.76,.93-7.1-.42L47.42,228.81c-2.44-1.41-3.95-4.03-3.95-6.86V18.41c0-3.46,2.12-6.18,4.91-7.33,2.14-.89,4.67-.85,6.97,.47l4.03,2.33L323.08,166.14c2.45,1.41,3.96,4.03,3.96,6.86Z"/>
  <path class="cls-31" d="M321.72,176.86v192.2c0,2.31-1.03,4.27-2.59,5.6l-1.99,1.23c-2.07,.88-4.55,.88-6.78-.39L52.84,224.39c-2.33-1.33-3.78-3.78-3.78-6.43l-1.38-191.15c0-3.25,2.03-5.79,4.69-6.88,2.04-.83,4.46-.8,6.65,.44l3.85,2.18,255.06,147.87c2.34,1.33,3.78,3.78,3.78,6.43Z"/>
  <path class="cls-17" d="M327.04,172.99v203.74c0,2.46-1.08,4.55-2.71,5.96l-2.08,1.31c-2.17,.94-4.76,.93-7.1-.42L47.42,228.81c-2.44-1.41-3.95-4.03-3.95-6.86V18.41c0-3.46,2.12-6.18,4.91-7.33,2.14-.89,4.67-.85,6.97,.47l4.03,2.33L323.08,166.14c2.45,1.41,3.96,4.03,3.96,6.86Z"/>
  <path class="cls-25" d="M342.94,163.04v203.74c0,2.33-.97,4.33-2.46,5.74h-.01s-2.59,1.65-2.59,1.65l-13.55,8.54c1.63-1.41,2.71-3.5,2.71-5.96V172.99c0-2.83-1.51-5.44-3.96-6.86L59.38,13.88l-4.03-2.33c-2.29-1.32-4.82-1.35-6.97-.47L62.23,2.35h.02s1.69-1.08,1.69-1.08c2.21-1.04,4.89-1.08,7.31,.32L338.99,156.18c2.44,1.41,3.95,4.03,3.95,6.86Z"/>
  <path class="cls-6" d="M321.72,176.86v192.2c0,2.31-1.03,4.27-2.59,5.6l-1.99,1.23c-2.07,.88-4.55,.88-6.78-.39L52.84,224.39c-2.33-1.33-3.78-3.78-3.78-6.43l-1.38-191.15c0-3.25,2.03-5.79,4.69-6.88,2.04-.83,4.46-.8,6.65,.44l3.85,2.18,255.06,147.87c2.34,1.33,3.78,3.78,3.78,6.43Z"/>
  <line class="cls-28" x1="335.77" y1="196.95" x2="335.77" y2="335.77"/>
  <ellipse class="cls-30" cx="335.77" cy="186.79" rx="1.5" ry=".86" transform="translate(4.88 382.1) rotate(-59.64)"/>
  <g>
    <path class="cls-30" d="M72.98,69.79c-3.82-2.2-6.91-.44-6.91,3.93,0,1.39,.32,2.94,.93,4.5,.19,.49,.62,.87,.95,.84,.33-.03,.45-.45,.26-.94h0c-.49-1.25-.75-2.49-.75-3.6,0-3.5,2.48-4.91,5.53-3.14,3.06,1.77,5.53,6.03,5.53,9.54,0,1.11-.26,2.06-.74,2.74-.19,.27-.08,.82,.25,1.23,0,0,0,0,0,0,.33,.41,.75,.52,.94,.25,1.91-2.69,.78-8.19-2.53-12.29-1.05-1.3-2.24-2.36-3.46-3.06Zm1.96,5.7l-1.07,.6c-.28-.32-.58-.57-.89-.75-1.15-.66-2.07-.13-2.07,1.18,0,1.31,.93,2.91,2.07,3.58s2.07,.13,2.07-1.18c0-.35-.07-.74-.21-1.13l1.07-.6c.27-.15,.27-.65,0-1.12,0,0,0,0,0,0-.27-.46-.71-.71-.97-.56Zm-1.96,3.02c-.38-.22-.69-.75-.69-1.19,0-.44,.31-.61,.69-.39,.18,.1,.35,.28,.48,.5h0c.13,.23,.21,.48,.21,.69,0,.44-.31,.61-.69,.39Z"/>
    <path class="cls-30" d="M69.66,115.32c-.46-.26-.83-.05-.83,.47,0,.53,.37,1.17,.83,1.43s.83,.05,.83-.47c0-.53-.37-1.17-.83-1.43Zm3.32-11.88c-3.32-1.92-6.64-2.53-6.64-.03v11.41c0,2.5,3.32,5.72,6.64,7.64s6.64,2.53,6.64,.03v-11.41c0-2.5-3.32-5.72-6.64-7.64Zm4.98,18.09c0,.68-1.89,.81-4.98-.97s-4.98-4.1-4.98-4.78v-3.11c1.55,1.74,3.26,3.14,4.98,4.08,1.72,1.05,3.43,1.62,4.98,1.67v3.11Zm0-5.71c0,.68-1.89,.81-4.98-.97-3.09-1.78-4.98-4.1-4.98-4.78v-3.11c1.55,1.74,3.26,3.14,4.98,4.08,1.72,1.05,3.43,1.62,4.98,1.67v3.11Zm-4.98-6.68c-3.09-1.78-4.98-4.1-4.98-4.78,0-.68,1.89-.81,4.98,.97s4.98,4.1,4.98,4.78-1.89,.81-4.98-.97Zm-3.32,.46c-.46-.26-.83-.05-.83,.47,0,.53,.37,1.17,.83,1.43s.83,.05,.83-.47c0-.53-.37-1.17-.83-1.43Z"/>
    <path class="cls-30" d="M66.88,177.67c-.45-.26-.81-.05-.81,.46v7.46c0,.52,.36,1.14,.81,1.4s.81,.05,.81-.46v-7.46c0-.52-.36-1.14-.81-1.4Zm4.07-6.98c-.45-.26-.81-.05-.81,.46v16.79c0,.52,.36,1.14,.81,1.4s.81,.05,.81-.46v-16.79c0-.52-.36-1.14-.81-1.4Zm8.14,17.75c-.45-.26-.81-.05-.81,.46v3.73c0,.52,.36,1.14,.81,1.4s.81,.05,.81-.46v-3.73c0-.52-.36-1.14-.81-1.4Zm-4.07-9.81c-.45-.26-.81-.05-.81,.46v11.19c0,.52,.36,1.14,.81,1.4s.81,.05,.81-.46v-11.19c0-.52-.36-1.14-.81-1.4Z"/>
    <path class="cls-30" d="M69.06,140.84c0-.83,.59-1.16,1.31-.74,.36,.21,.65,.04,.65-.37,0-.41-.29-.92-.65-1.13-1.44-.83-2.62-.17-2.62,1.49v2.25c0,.83-.59,1.16-1.31,.74-.36-.21-.65-.04-.65,.37s.29,.92,.65,1.13c.72,.42,1.31,1.43,1.31,2.25v2.25c0,1.66,1.17,3.67,2.62,4.51,.36,.21,.65,.04,.65-.37,0-.41-.29-.92-.65-1.13-.72-.42-1.31-1.43-1.31-2.25v-2.25c0-.87-.33-1.88-.9-2.77,.57-.24,.9-.87,.9-1.73v-2.25Zm10.46,9.79c-.72-.42-1.31-1.43-1.31-2.25v-2.25c0-1.66-1.17-3.67-2.62-4.51-.36-.21-.65-.04-.65,.37s.29,.92,.65,1.13c.72,.42,1.31,1.43,1.31,2.25v2.25c0,.87,.33,1.88,.9,2.77-.57,.24-.9,.87-.9,1.73v2.25c0,.83-.59,1.16-1.31,.74-.36-.21-.65-.04-.65,.37,0,.41,.29,.92,.65,1.13,1.44,.83,2.62,.17,2.62-1.49v-2.25c0-.83,.59-1.16,1.31-.74,.36,.21,.65,.04,.65-.37s-.29-.92-.65-1.13Z"/>
    <g>
      <path class="cls-30" d="M92.5,61.85V212.07c0,.78-.19,1.5-.54,2.11-.39,.72-.97,1.29-1.67,1.69-1.29,.74-2.95,.84-4.41-.03l-27.89-16.54c-1.47-.87-2.37-2.45-2.37-4.16V44.47c0-1.39,.56-2.59,1.44-3.45,.37-.35,.79-.65,1.24-.88l.29-.13c.8-.33,1.68-.46,2.57-.32,.58,.08,1.15,.28,1.7,.6l25.75,14.87c2.39,1.38,3.87,3.93,3.87,6.7Z"/>
      <path class="cls-30" d="M92.5,61.85V212.07c0,.78-.19,1.5-.54,2.11-.39,.72-.97,1.29-1.67,1.69-1.29,.74-2.95,.84-4.41-.03l-27.89-16.54c-1.47-.87-2.37-2.45-2.37-4.16V44.47c0-1.39,.56-2.59,1.44-3.45,.37-.35,.79-.65,1.24-.88l.29-.13c.8-.33,1.68-.46,2.57-.32,.58,.08,1.15,.28,1.7,.6l25.75,14.87c2.39,1.38,3.87,3.93,3.87,6.7Z"/>
    </g>
  </g>
  <path class="cls-34" d="M72.98,69.79c-3.82-2.2-6.91-.44-6.91,3.93,0,1.39,.32,2.94,.93,4.5,.19,.49,.62,.87,.95,.84,.33-.03,.45-.45,.26-.94h0c-.49-1.25-.75-2.49-.75-3.6,0-3.5,2.48-4.91,5.53-3.14,3.06,1.77,5.53,6.03,5.53,9.54,0,1.11-.26,2.06-.74,2.74-.19,.27-.08,.82,.25,1.23,0,0,0,0,0,0,.33,.41,.75,.52,.94,.25,1.91-2.69,.78-8.19-2.53-12.29-1.05-1.3-2.24-2.36-3.46-3.06Zm1.96,5.7l-1.07,.6c-.28-.32-.58-.57-.89-.75-1.15-.66-2.07-.13-2.07,1.18,0,1.31,.93,2.91,2.07,3.58s2.07,.13,2.07-1.18c0-.35-.07-.74-.21-1.13l1.07-.6c.27-.15,.27-.65,0-1.12,0,0,0,0,0,0-.27-.46-.71-.71-.97-.56Zm-1.96,3.02c-.38-.22-.69-.75-.69-1.19,0-.44,.31-.61,.69-.39,.18,.1,.35,.28,.48,.5h0c.13,.23,.21,.48,.21,.69,0,.44-.31,.61-.69,.39Z"/>
  <path class="cls-34" d="M69.66,115.32c-.46-.26-.83-.05-.83,.47,0,.53,.37,1.17,.83,1.43s.83,.05,.83-.47c0-.53-.37-1.17-.83-1.43Zm3.32-11.88c-3.32-1.92-6.64-2.53-6.64-.03v11.41c0,2.5,3.32,5.72,6.64,7.64s6.64,2.53,6.64,.03v-11.41c0-2.5-3.32-5.72-6.64-7.64Zm4.98,18.09c0,.68-1.89,.81-4.98-.97s-4.98-4.1-4.98-4.78v-3.11c1.55,1.74,3.26,3.14,4.98,4.08,1.72,1.05,3.43,1.62,4.98,1.67v3.11Zm0-5.71c0,.68-1.89,.81-4.98-.97-3.09-1.78-4.98-4.1-4.98-4.78v-3.11c1.55,1.74,3.26,3.14,4.98,4.08,1.72,1.05,3.43,1.62,4.98,1.67v3.11Zm-4.98-6.68c-3.09-1.78-4.98-4.1-4.98-4.78,0-.68,1.89-.81,4.98,.97s4.98,4.1,4.98,4.78-1.89,.81-4.98-.97Zm-3.32,.46c-.46-.26-.83-.05-.83,.47,0,.53,.37,1.17,.83,1.43s.83,.05,.83-.47c0-.53-.37-1.17-.83-1.43Z"/>
  <path class="cls-34" d="M66.88,177.67c-.45-.26-.81-.05-.81,.46v7.46c0,.52,.36,1.14,.81,1.4s.81,.05,.81-.46v-7.46c0-.52-.36-1.14-.81-1.4Zm4.07-6.98c-.45-.26-.81-.05-.81,.46v16.79c0,.52,.36,1.14,.81,1.4s.81,.05,.81-.46v-16.79c0-.52-.36-1.14-.81-1.4Zm8.14,17.75c-.45-.26-.81-.05-.81,.46v3.73c0,.52,.36,1.14,.81,1.4s.81,.05,.81-.46v-3.73c0-.52-.36-1.14-.81-1.4Zm-4.07-9.81c-.45-.26-.81-.05-.81,.46v11.19c0,.52,.36,1.14,.81,1.4s.81,.05,.81-.46v-11.19c0-.52-.36-1.14-.81-1.4Z"/>
  <path class="cls-34" d="M69.06,140.84c0-.83,.59-1.16,1.31-.74,.36,.21,.65,.04,.65-.37,0-.41-.29-.92-.65-1.13-1.44-.83-2.62-.17-2.62,1.49v2.25c0,.83-.59,1.16-1.31,.74-.36-.21-.65-.04-.65,.37s.29,.92,.65,1.13c.72,.42,1.31,1.43,1.31,2.25v2.25c0,1.66,1.17,3.67,2.62,4.51,.36,.21,.65,.04,.65-.37,0-.41-.29-.92-.65-1.13-.72-.42-1.31-1.43-1.31-2.25v-2.25c0-.87-.33-1.88-.9-2.77,.57-.24,.9-.87,.9-1.73v-2.25Zm10.46,9.79c-.72-.42-1.31-1.43-1.31-2.25v-2.25c0-1.66-1.17-3.67-2.62-4.51-.36-.21-.65-.04-.65,.37s.29,.92,.65,1.13c.72,.42,1.31,1.43,1.31,2.25v2.25c0,.87,.33,1.88,.9,2.77-.57,.24-.9,.87-.9,1.73v2.25c0,.83-.59,1.16-1.31,.74-.36-.21-.65-.04-.65,.37,0,.41,.29,.92,.65,1.13,1.44,.83,2.62,.17,2.62-1.49v-2.25c0-.83,.59-1.16,1.31-.74,.36,.21,.65,.04,.65-.37s-.29-.92-.65-1.13Z"/>
  <path class="cls-4" d="M92.5,61.85V212.07c0,.78-.19,1.5-.54,2.11-.39,.72-.97,1.29-1.67,1.69-1.29,.74-2.95,.84-4.41-.03l-27.89-16.54c-1.47-.87-2.37-2.45-2.37-4.16V44.47c0-1.39,.56-2.59,1.44-3.45,.37-.35,.79-.65,1.24-.88l.29-.13c.8-.33,1.68-.46,2.57-.32,.58,.08,1.15,.28,1.7,.6l25.75,14.87c2.39,1.38,3.87,3.93,3.87,6.7Z"/>
  <path class="cls-19" d="M97.29,59.68V209.9c0,1.58-.79,2.87-1.94,3.64h-.02s-1.2,.56-1.2,.56h-.02s-3.82,1.77-3.82,1.77c.69-.4,1.28-.97,1.67-1.69,.34-.61,.54-1.33,.54-2.11V61.85c0-2.77-1.48-5.32-3.87-6.7l-25.75-14.87c-.55-.32-1.13-.51-1.7-.6-.89-.14-1.78-.01-2.57,.32l4.36-1.97,.6-.27,.04-.02c1.27-.46,2.73-.41,4.07,.36l25.75,14.87c2.4,1.38,3.87,3.94,3.87,6.7Z"/>
  <path class="cls-4" d="M92.5,61.85V212.07c0,.78-.19,1.5-.54,2.11-.39,.72-.97,1.29-1.67,1.69-1.29,.74-2.95,.84-4.41-.03l-27.89-16.54c-1.47-.87-2.37-2.45-2.37-4.16V44.47c0-1.39,.56-2.59,1.44-3.45,.37-.35,.79-.65,1.24-.88l.29-.13c.8-.33,1.68-.46,2.57-.32,.58,.08,1.15,.28,1.7,.6l25.75,14.87c2.39,1.38,3.87,3.93,3.87,6.7Z"/>
  <path class="cls-30" d="M303.03,175.61l-78.8-45.5c-1.38-.8-2.93-.78-4.19-.18l-.04,.02-.33,.18-5.86,3.15c1.11-.55,2.45-.66,3.71-.14,.18,.09,.38,.18,.56,.28l78.8,45.5c.92,.53,1.61,1.37,1.97,2.33l6.09-3.46c-.38-.91-1.04-1.68-1.92-2.18Z"/>
  <path class="cls-34" d="M298.85,181.25c.19,.5,.3,1.04,.3,1.59v101.15c0,.31-.03,.61-.09,.9-.24,1.26-1.01,2.29-2.01,2.92l5.39-2.91h.03c1.61-.67,2.83-2.23,2.83-4.22v-101.14c0-.61-.12-1.2-.35-1.74l-6.09,3.46Z"/>
  <path class="cls-30" d="M299.15,182.84v101.15c0,.31-.03,.61-.09,.9-.24,1.26-1.01,2.29-2.01,2.92-1.34,.86-3.12,1.02-4.69,.11l-78.81-45.5c-1.4-.81-2.26-2.31-2.26-3.92v-101.15c0-1.74,.94-3.16,2.26-3.92l.26-.14c1.11-.55,2.45-.66,3.71-.14,.18,.09,.38,.18,.56,.28l78.8,45.5c1.4,.81,2.27,2.31,2.27,3.92Z"/>
  <path class="cls-33" d="M298.43,180.4c.46,.72,.73,1.56,.73,2.44v90.44l6.14-3.88v-89.87c0-.89-.27-1.74-.73-2.46l-6.14,3.32Z"/>
  <path class="cls-32" d="M303.03,175.61l-78.8-45.5c-1.38-.8-2.93-.78-4.19-.18l-.04,.02-.33,.18-5.86,3.15c1.11-.55,2.45-.66,3.71-.14,.18,.09,.38,.18,.56,.28l78.8,45.5c.64,.37,1.16,.88,1.54,1.48l6.14-3.32c-.38-.59-.9-1.1-1.53-1.47Z"/>
  <path d="M299.15,273.27v10.71c0,.31-.03,.61-.09,.9-.24,1.26-1.01,2.29-2.01,2.92l5.39-2.91h.03c1.61-.67,2.83-2.23,2.83-4.22v-11.28l-6.14,3.88Z"/>
  <path class="cls-23" d="M299.15,182.84v101.15c0,.31-.03,.61-.09,.9-.24,1.26-1.01,2.29-2.01,2.92-1.34,.86-3.12,1.02-4.69,.11l-78.81-45.5c-1.4-.81-2.26-2.31-2.26-3.92v-101.15c0-1.74,.94-3.16,2.26-3.92l.26-.14c1.11-.55,2.45-.66,3.71-.14,.18,.09,.38,.18,.56,.28l78.8,45.5c1.4,.81,2.27,2.31,2.27,3.92Z"/>
  <path class="cls-23" d="M305.29,179.53v101.14c0,1.99-1.23,3.55-2.83,4.21h-.03s-5.39,2.92-5.39,2.92c1-.63,1.77-1.66,2.01-2.92,.06-.29,.09-.59,.09-.9v-101.15c0-1.61-.86-3.11-2.27-3.92l-78.8-45.5c-.18-.11-.38-.2-.56-.28-1.26-.51-2.6-.41-3.71,.14l5.86-3.15,.33-.18,.04-.02c1.26-.6,2.8-.62,4.19,.18l78.8,45.5c1.4,.8,2.27,2.3,2.27,3.92Z"/>
  <line class="cls-1" x1="217.61" y1="236.44" x2="219.03" y2="237.26"/>
  <line class="cls-1" x1="219.81" y1="239.61" x2="219.81" y2="238.39"/>
  <line class="cls-1" x1="221.94" y1="240.84" x2="221.94" y2="239.62"/>
  <line class="cls-1" x1="224.07" y1="242.07" x2="224.07" y2="240.85"/>
  <line class="cls-1" x1="226.19" y1="243.29" x2="226.19" y2="242.07"/>
  <line class="cls-1" x1="228.32" y1="244.52" x2="228.32" y2="243.3"/>
  <line class="cls-1" x1="230.45" y1="245.75" x2="230.45" y2="244.53"/>
  <line class="cls-1" x1="232.57" y1="246.98" x2="232.57" y2="245.76"/>
  <line class="cls-1" x1="234.7" y1="248.21" x2="234.7" y2="246.98"/>
  <line class="cls-1" x1="236.83" y1="249.43" x2="236.83" y2="248.21"/>
  <line class="cls-1" x1="238.95" y1="250.66" x2="238.95" y2="249.44"/>
  <line class="cls-1" x1="241.08" y1="251.89" x2="241.08" y2="250.67"/>
  <line class="cls-1" x1="243.21" y1="253.12" x2="243.21" y2="251.9"/>
  <line class="cls-1" x1="245.33" y1="254.35" x2="245.33" y2="253.12"/>
  <line class="cls-1" x1="247.46" y1="255.57" x2="247.46" y2="254.35"/>
  <line class="cls-1" x1="249.59" y1="256.8" x2="249.59" y2="255.58"/>
  <line class="cls-1" x1="251.71" y1="258.03" x2="251.71" y2="256.81"/>
  <line class="cls-1" x1="253.84" y1="259.26" x2="253.84" y2="258.04"/>
  <line class="cls-1" x1="255.97" y1="260.48" x2="255.97" y2="259.26"/>
  <line class="cls-1" x1="258.1" y1="261.71" x2="258.1" y2="260.49"/>
  <line class="cls-1" x1="260.22" y1="262.94" x2="260.22" y2="261.72"/>
  <line class="cls-1" x1="262.35" y1="264.17" x2="262.35" y2="262.95"/>
  <line class="cls-1" x1="264.48" y1="265.4" x2="264.48" y2="264.18"/>
  <line class="cls-1" x1="266.6" y1="266.62" x2="266.6" y2="265.4"/>
  <line class="cls-1" x1="268.73" y1="267.85" x2="268.73" y2="266.63"/>
  <line class="cls-1" x1="270.86" y1="269.08" x2="270.86" y2="267.86"/>
  <line class="cls-1" x1="272.98" y1="270.31" x2="272.98" y2="269.09"/>
  <line class="cls-1" x1="275.11" y1="271.54" x2="275.11" y2="270.32"/>
  <line class="cls-1" x1="277.24" y1="272.76" x2="277.24" y2="271.54"/>
  <line class="cls-1" x1="279.36" y1="273.99" x2="279.36" y2="272.77"/>
  <line class="cls-1" x1="281.49" y1="275.22" x2="281.49" y2="274"/>
  <line class="cls-1" x1="283.62" y1="276.45" x2="283.62" y2="275.23"/>
  <line class="cls-1" x1="285.74" y1="277.68" x2="285.74" y2="276.46"/>
  <line class="cls-1" x1="287.87" y1="278.9" x2="287.87" y2="277.68"/>
  <line class="cls-1" x1="217.61" y1="233.37" x2="219.03" y2="234.19"/>
  <line class="cls-1" x1="217.61" y1="230.3" x2="219.03" y2="231.12"/>
  <line class="cls-1" x1="217.61" y1="227.23" x2="219.03" y2="228.05"/>
  <line class="cls-1" x1="217.61" y1="224.16" x2="219.03" y2="224.98"/>
  <line class="cls-1" x1="217.61" y1="221.09" x2="219.03" y2="221.91"/>
  <line class="cls-1" x1="217.61" y1="218.02" x2="219.03" y2="218.84"/>
  <line class="cls-1" x1="217.61" y1="214.95" x2="219.03" y2="215.77"/>
  <line class="cls-1" x1="217.61" y1="211.88" x2="219.03" y2="212.7"/>
  <line class="cls-1" x1="217.61" y1="208.81" x2="219.03" y2="209.63"/>
  <line class="cls-1" x1="217.61" y1="205.74" x2="219.03" y2="206.56"/>
  <polyline class="cls-1" points="217.61 200.62 218.28 200.17 218.28 238.11 289.95 279.5"/>
  <line class="cls-1" x1="218.88" y1="201.32" x2="218.28" y2="200.17"/>
  <path class="cls-3" d="M224.07,237.09s.28-26.66,10.63-21.49c10.36,5.17,2.29,16.67,11.15,21.79s6.54-11.81,13.6-7.74,.63,11.94,10.1,17.41c9.47,5.47,10.92-6.21,10.92-6.21"/>
  <line class="cls-11" x1="217.16" y1="184.6" x2="218.59" y2="185.42"/>
  <line class="cls-11" x1="219.37" y1="187.79" x2="219.37" y2="186.56"/>
  <line class="cls-11" x1="221.51" y1="189.03" x2="221.51" y2="187.8"/>
  <line class="cls-11" x1="223.65" y1="190.26" x2="223.65" y2="189.03"/>
  <line class="cls-11" x1="225.79" y1="191.5" x2="225.79" y2="190.27"/>
  <line class="cls-11" x1="227.93" y1="192.73" x2="227.93" y2="191.5"/>
  <line class="cls-11" x1="230.07" y1="193.97" x2="230.07" y2="192.74"/>
  <line class="cls-11" x1="232.21" y1="195.2" x2="232.21" y2="193.98"/>
  <line class="cls-11" x1="234.35" y1="196.44" x2="234.35" y2="195.21"/>
  <line class="cls-11" x1="236.49" y1="197.68" x2="236.49" y2="196.45"/>
  <line class="cls-11" x1="238.63" y1="198.91" x2="238.63" y2="197.68"/>
  <line class="cls-11" x1="240.77" y1="200.15" x2="240.77" y2="198.92"/>
  <line class="cls-11" x1="242.91" y1="201.38" x2="242.91" y2="200.15"/>
  <line class="cls-11" x1="245.05" y1="202.62" x2="245.05" y2="201.39"/>
  <line class="cls-11" x1="247.19" y1="203.85" x2="247.19" y2="202.63"/>
  <line class="cls-11" x1="249.33" y1="205.09" x2="249.33" y2="203.86"/>
  <line class="cls-11" x1="251.47" y1="206.33" x2="251.47" y2="205.1"/>
  <line class="cls-11" x1="253.61" y1="207.56" x2="253.61" y2="206.33"/>
  <line class="cls-11" x1="255.76" y1="208.8" x2="255.76" y2="207.57"/>
  <line class="cls-11" x1="257.9" y1="210.03" x2="257.9" y2="208.8"/>
  <line class="cls-11" x1="260.04" y1="211.27" x2="260.04" y2="210.04"/>
  <line class="cls-11" x1="262.18" y1="212.5" x2="262.18" y2="211.27"/>
  <line class="cls-11" x1="264.32" y1="213.74" x2="264.32" y2="212.51"/>
  <line class="cls-11" x1="266.46" y1="214.97" x2="266.46" y2="213.75"/>
  <line class="cls-11" x1="268.6" y1="216.21" x2="268.6" y2="214.98"/>
  <line class="cls-11" x1="270.74" y1="217.45" x2="270.74" y2="216.22"/>
  <line class="cls-11" x1="272.88" y1="218.68" x2="272.88" y2="217.45"/>
  <line class="cls-11" x1="275.02" y1="219.92" x2="275.02" y2="218.69"/>
  <line class="cls-11" x1="277.16" y1="221.15" x2="277.16" y2="219.92"/>
  <line class="cls-11" x1="279.3" y1="222.39" x2="279.3" y2="221.16"/>
  <line class="cls-11" x1="281.44" y1="223.62" x2="281.44" y2="222.4"/>
  <line class="cls-11" x1="283.58" y1="224.86" x2="283.58" y2="223.63"/>
  <line class="cls-11" x1="285.72" y1="226.1" x2="285.72" y2="224.87"/>
  <line class="cls-11" x1="287.86" y1="227.33" x2="287.86" y2="226.1"/>
  <line class="cls-11" x1="217.16" y1="181.51" x2="218.59" y2="182.33"/>
  <line class="cls-11" x1="217.16" y1="178.42" x2="218.59" y2="179.25"/>
  <line class="cls-11" x1="217.16" y1="175.33" x2="218.59" y2="176.16"/>
  <line class="cls-11" x1="217.16" y1="172.24" x2="218.59" y2="173.07"/>
  <line class="cls-11" x1="217.16" y1="169.15" x2="218.59" y2="169.98"/>
  <line class="cls-11" x1="217.16" y1="166.06" x2="218.59" y2="166.89"/>
  <line class="cls-11" x1="217.16" y1="162.97" x2="218.59" y2="163.8"/>
  <line class="cls-11" x1="217.16" y1="159.88" x2="218.59" y2="160.71"/>
  <line class="cls-11" x1="217.16" y1="156.79" x2="218.59" y2="157.62"/>
  <line class="cls-11" x1="217.16" y1="153.7" x2="218.59" y2="154.53"/>
  <path class="cls-27" d="M220.48,155.62s2.04,9.09,10.21,13.8,9.49-1.24,15.74,2.37,7.1,27.63,15.75,32.62,25.68-13.86,25.68-13.86"/>
  <polyline class="cls-11" points="217.16 148.55 217.83 148.1 217.83 186.28 289.95 227.93"/>
  <line class="cls-11" x1="218.43" y1="149.26" x2="217.83" y2="148.1"/>
  <path class="cls-30" d="M198.04,114.68l-78.51-45.33c-1.38-.79-2.92-.77-4.17-.18l-.04,.02-.33,.18-5.84,3.14c1.11-.55,2.44-.66,3.7-.14,.18,.09,.37,.18,.56,.28l78.51,45.33c.82,.48,1.45,1.19,1.84,2.02l6.09-3.37c-.39-.8-1-1.49-1.8-1.95Z"/>
  <path class="cls-34" d="M193.75,120c.27,.58,.42,1.22,.42,1.88v100.78c0,.31-.03,.6-.09,.89-.24,1.25-1,2.28-2,2.91l5.37-2.9h.03c1.6-.66,2.82-2.22,2.82-4.2V118.59c0-.69-.17-1.36-.46-1.96l-6.09,3.37Z"/>
  <path class="cls-32" d="M200.29,118.59c0-1.62-.86-3.11-2.26-3.91l-78.51-45.33c-1.38-.79-2.92-.77-4.17-.18l-.04,.02-.33,.18-5.84,3.14c1.11-.55,2.44-.66,3.7-.14,.18,.09,.37,.18,.56,.28l78.51,45.33c1.4,.81,2.26,2.3,2.26,3.91v3.36l6.12-3.91v-2.75Z"/>
  <polygon class="cls-33" points="194.17 125.24 194.17 184.04 200.29 179.91 200.29 121.33 194.17 125.24"/>
  <path d="M194.17,184.04v38.62c0,.31-.03,.6-.09,.89-.24,1.25-1,2.28-2,2.91l5.37-2.9h.03c1.6-.66,2.82-2.22,2.82-4.2v-39.45l-6.12,4.13Z"/>
  <path class="cls-30" d="M194.17,121.88v100.78c0,.31-.03,.6-.09,.89-.24,1.25-1,2.28-2,2.91-1.34,.85-3.11,1.01-4.68,.11l-78.52-45.33c-1.39-.81-2.25-2.3-2.25-3.91V76.55c0-1.73,.94-3.15,2.25-3.91l.26-.14c1.11-.55,2.44-.66,3.7-.14,.18,.09,.37,.18,.56,.28l78.51,45.33c1.4,.81,2.26,2.3,2.26,3.91Z"/>
  <path class="cls-32" d="M119.68,156.22c4.53,10.34,11.3,19.92,19.78,27.34,3.03,2.65,6.07,4.81,9.05,6.5,15.17,8.57,28.96,4.78,32.95-10.56,.53-2.04,.87-4.21,1.02-6.46l-34.54-22.46v.04"/>
  <path class="cls-31" d="M157.77,119.04c-.64-.61-1.3-1.21-1.96-1.79-3.77-3.3-7.56-5.84-11.25-7.65l2.31,40.95,10.9-31.51Z"/>
  <path class="cls-34" d="M143.74,152.21l-.02,.05-28.55,4.71c-5.11-11.94-7.03-24.37-4.5-34.11,1.08-4.14,2.87-7.43,5.21-9.87l27.86,39.23Z"/>
  <path class="cls-26" d="M194.17,121.88v100.78c0,.31-.03,.6-.09,.89-.24,1.25-1,2.28-2,2.91-1.34,.85-3.11,1.01-4.68,.11l-78.52-45.33c-1.39-.81-2.25-2.3-2.25-3.91V76.55c0-1.73,.94-3.15,2.25-3.91l.26-.14c1.11-.55,2.44-.66,3.7-.14,.18,.09,.37,.18,.56,.28l78.51,45.33c1.4,.81,2.26,2.3,2.26,3.91Z"/>
  <path class="cls-26" d="M200.29,118.59v100.77c0,1.98-1.22,3.54-2.82,4.2h-.03s-5.37,2.91-5.37,2.91c1-.63,1.76-1.65,2-2.91,.06-.29,.09-.58,.09-.89V121.88c0-1.61-.86-3.1-2.26-3.91l-78.51-45.33c-.18-.11-.37-.2-.56-.28-1.25-.51-2.59-.41-3.7,.14l5.84-3.14,.33-.18,.04-.02c1.25-.6,2.79-.62,4.17,.18l78.51,45.33c1.4,.8,2.26,2.29,2.26,3.91Z"/>
  <polygon class="cls-7" points="150.94 149.09 150.89 149.03 150.88 149.06 150.93 149.09 150.94 149.09"/>
  <polygon class="cls-7" points="150.93 149.09 150.88 149.06 150.87 149.1 150.93 149.09"/>
  <path class="cls-7" d="M143.74,152.21l-.02,.05-28.55,4.71c-5.11-11.94-7.03-24.37-4.5-34.11,1.08-4.14,2.87-7.43,5.21-9.87l27.86,39.23Z"/>
  <polygon class="cls-7" points="150.99 149.08 150.94 149.09 150.94 149.09 150.99 149.13 150.99 149.08"/>
  <polygon class="cls-7" points="150.99 149.13 150.94 149.09 150.99 149.17 150.99 149.13"/>
  <polygon class="cls-7" points="150.99 149.08 150.97 148.8 150.89 149.03 150.94 149.09 150.99 149.08"/>
  <polygon class="cls-7" points="150.94 149.09 150.93 149.09 150.94 149.09 150.94 149.09"/>
  <path class="cls-7" d="M173.14,191.99c5.4-2,9.49-6.67,11.38-13.94,.53-2.04,.87-4.21,1.02-6.46l-34.54-22.46v.04s.08,.1,.08,.1l-.07-.1"/>
  <path class="cls-33" d="M146.42,146.3l-1.85-36.7-1.97,.71v-.06c-10.24-5.02-19.65-4.33-25.56,1.84l28.09,39.11,1.74-.66-.45-4.25Z"/>
  <path class="cls-7" d="M119.68,156.22c4.53,10.34,11.3,19.92,19.78,27.34,3.03,2.65,6.07,4.81,9.05,6.5,15.17,8.57,28.96,4.78,32.95-10.56,.53-2.04,.87-4.21,1.02-6.46l-34.54-22.46v.04"/>
  <path class="cls-7" d="M150.99,149.08l34.55,22.51c.49-7.27-.95-15.47-3.92-23.61-4.07-11.16-11.02-22.2-19.84-30.55l-10.81,31.37,.02,.28"/>
  <path class="cls-7" d="M150.97,148.8l10.81-31.37c-.64-.61-1.3-1.21-1.96-1.79-3.77-3.3-7.56-5.84-11.25-7.65"/>
  <path class="cls-7" d="M157.77,119.04c-.64-.61-1.3-1.21-1.96-1.79-3.77-3.3-7.56-5.84-11.25-7.65l2.31,40.95,10.9-31.51Z"/>
  <line class="cls-7" x1="161.78" y1="117.43" x2="157.77" y2="119.04"/>
  <line class="cls-7" x1="182.47" y1="173.04" x2="185.53" y2="171.59"/>
  <line class="cls-7" x1="151.17" y1="148.88" x2="143.73" y2="152.25"/>
  <line class="cls-7" x1="115.88" y1="112.98" x2="117.04" y2="112.1"/>
  <path class="cls-32" d="M126.85,107.05s5.36-3.56,12.97-2.01c7.61,1.55,8.43,2.96,8.43,2.96l-5.71,2.13s-8.12-4.11-15.68-3.07Z"/>
  <path class="cls-7" d="M142.59,110.26c-10.24-5.02-19.64-4.33-25.55,1.84l28.09,39.11,5.76-2.18"/>
  <polyline class="cls-7" points="148.57 107.99 142.59 110.26 145.96 150.82"/>
  <path class="cls-7" d="M148.57,107.99c-8.46-4.15-16.36-4.4-22.18-.87"/>
  <polygon class="cls-33" points="224.77 260.33 217.62 264.38 217.46 285.66 224.77 281.36 224.77 260.33"/>
  <polygon points="217.46 285.66 217.27 310.52 224.77 306.06 224.77 281.36 217.46 285.66"/>
  <polygon class="cls-33" points="166.85 231.53 159.7 235.58 159.42 268.11 166.85 264.01 166.85 231.53"/>
  <polygon points="159.42 268.11 159.35 276.82 166.85 272.35 166.85 264.01 159.42 268.11"/>
  <polygon class="cls-33" points="137.94 221.25 130.28 225.3 130.34 238.58 137.94 234.01 137.94 221.25"/>
  <polygon points="130.34 238.58 130.44 259.88 137.94 255.42 137.94 234.01 130.34 238.58"/>
  <polyline points="188.68 293.4 188.23 268.65 196.04 264.19 196.18 288.94 188.68 293.4"/>
  <polyline points="246.47 326.93 246.82 289.01 253.97 284.96 253.97 322.47 246.47 326.93"/>
  <polyline points="275.57 343.68 275.93 293.47 283.07 289.42 283.07 339.22 275.57 343.68"/>
  <polyline class="cls-32" points="261.68 285.65 275.54 293.4 283.29 288.96 269.63 281.07 261.68 285.65"/>
  <polyline class="cls-32" points="232.77 281.33 246.63 289.08 254.38 284.63 240.72 276.74 232.77 281.33"/>
  <polyline class="cls-32" points="203.6 256.44 217.46 264.19 225.21 259.74 211.54 251.85 203.6 256.44"/>
  <polyline class="cls-32" points="174.56 260.76 188.42 268.51 196.17 264.07 182.51 256.18 174.56 260.76"/>
  <polyline class="cls-32" points="145.52 227.65 159.38 235.4 167.13 230.96 153.47 223.07 145.52 227.65"/>
  <polyline class="cls-32" points="116.48 217.68 130.34 225.43 138.09 220.99 124.43 213.1 116.48 217.68"/>
  <g>
    <polyline class="cls-24" points="124.42 212.98 138.07 220.85 138.07 220.85 138.09 220.87 138.09 255.64"/>
    <polyline class="cls-24" points="153.47 223.07 167.13 230.96 167.13 231.04 167.13 272.4"/>
    <polyline class="cls-24" points="182.5 256.02 196.18 263.92 196.18 264.19 196.18 289.17"/>
    <polyline class="cls-24" points="211.55 251.72 225.21 259.61 225.21 305.94"/>
    <polyline class="cls-24" points="240.59 276.75 240.64 276.77 240.64 276.78 254.25 284.64 254.25 284.76 254.25 322.7"/>
    <line class="cls-24" x1="275.55" y1="293.4" x2="282.88" y2="289.17"/>
    <polyline class="cls-24" points="261.68 285.65 269.63 281.07 283.07 288.83 283.29 288.96 283.29 339.47"/>
    <line class="cls-24" x1="246.31" y1="289.22" x2="254.12" y2="284.76"/>
    <line class="cls-24" x1="246.31" y1="327.28" x2="254.25" y2="322.7"/>
    <line class="cls-24" x1="232.77" y1="281.33" x2="240.59" y2="276.87"/>
    <line class="cls-24" x1="203.6" y1="256.18" x2="211.42" y2="251.72"/>
    <line class="cls-24" x1="188.23" y1="268.65" x2="196.04" y2="264.19"/>
    <line class="cls-24" x1="188.23" y1="293.68" x2="196.04" y2="289.22"/>
    <line class="cls-24" x1="182.38" y1="256.18" x2="174.59" y2="260.63"/>
    <line class="cls-24" x1="159.19" y1="276.86" x2="167" y2="272.4"/>
    <line class="cls-24" x1="159.19" y1="235.5" x2="167" y2="231.04"/>
    <line class="cls-24" x1="145.52" y1="227.53" x2="153.34" y2="223.07"/>
    <polyline class="cls-24" points="130.28 225.3 138.07 220.85 138.1 220.84"/>
    <line class="cls-24" x1="116.48" y1="217.56" x2="124.3" y2="213.1"/>
    <polyline class="cls-24" points="130.28 260.09 138.09 255.64 138.1 255.64"/>
    <line class="cls-24" x1="225.21" y1="259.61" x2="217.27" y2="264.19"/>
    <line class="cls-24" x1="217.4" y1="310.52" x2="225.22" y2="306.06"/>
    <line class="cls-24" x1="275.35" y1="344.05" x2="283.29" y2="339.47"/>
    <polyline class="cls-24" points="116.48 217.57 124.42 222.15 130.15 225.46 130.15 260.09 130.15 260.22 116.48 252.33 116.48 217.57"/>
    <polygon class="cls-24" points="159.17 235.53 159.18 235.55 159.18 276.86 159.18 276.99 145.52 269.1 145.52 227.66 153.47 232.24 159.17 235.53"/>
    <polyline class="cls-24" points="174.59 260.63 182.5 265.2 188.23 268.5 188.23 268.65 188.23 293.68 188.23 293.75 174.56 285.86 174.56 260.64"/>
    <polygon class="cls-24" points="174.59 260.63 174.56 260.64 174.56 260.61 174.59 260.63"/>
    <polygon class="cls-24" points="217.27 264.2 217.27 310.52 203.6 302.63 203.6 256.31 211.55 260.9 217.27 264.2"/>
    <polygon class="cls-24" points="246.31 289.22 246.31 327.28 232.64 319.39 232.64 281.33 232.74 281.38 240.59 285.92 246.31 289.22"/>
    <polygon class="cls-24" points="275.35 293.54 275.35 344.05 261.68 336.16 261.68 285.65 269.63 290.24 275.35 293.54"/>
  </g>
  <g>
    <line class="cls-8" x1="353.43" y1="365.77" x2="353.73" y2="365.95"/>
    <line class="cls-15" x1="354.88" y1="366.66" x2="366.42" y2="373.7"/>
    <line class="cls-8" x1="367" y1="374.05" x2="367.29" y2="374.23"/>
  </g>
  <path class="cls-21" d="M356.35,360.57l-17.08-10.01h0c-.77-.49-1.87-.44-3.08,.26-2.34,1.35-4.24,4.62-4.24,7.3,0,1.41,.53,2.38,1.36,2.78h0s17.38,10.16,17.38,10.16"/>
  <ellipse class="cls-2" cx="353.43" cy="365.77" rx="5.97" ry="3.45" transform="translate(-140.82 485.86) rotate(-59.64)"/>
  <g>
    <line class="cls-8" x1="232.79" y1="457.02" x2="233.1" y2="457.19"/>
    <line class="cls-9" x1="234.29" y1="457.88" x2="366.4" y2="533.71"/>
    <polyline class="cls-8" points="366.99 534.05 367.29 534.22 367.29 533.88"/>
    <line class="cls-20" x1="367.29" y1="532.49" x2="367.29" y2="375.27"/>
    <line class="cls-8" x1="367.29" y1="374.58" x2="367.29" y2="374.23"/>
  </g>
  <polygon class="cls-29" points="138.67 335.67 114.99 349.88 179.18 386.94 203.01 372.82 138.67 335.67"/>
  <polygon class="cls-29" points="251.92 399.89 223.01 381.82 199.18 395.94 227.9 413.9 251.92 399.89"/>
  <path class="cls-29" d="M428.72,552.09l-156.79-92.2-24.02,14.01,156.67,92.12c2.91,1.68,7.32,1.86,9.84,.41l15.01-8.66c2.52-1.46,2.21-4-.71-5.68Z"/>
</svg>